<svg xmlns="http://www.w3.org/2000/svg" version="1.0" viewBox="0 0 512 512">
  <path
    d="M387 27c-20 5-37 22-42 43-4 19 2 37 16 51a57 57 0 0 0 91-65c-5-9-16-21-26-25l-13-5c-7-1-19-1-26 1z"
  />
  <path
    d="m204 71-53 13c-5 2-11 8-14 14-4 11 1 26 12 32 8 3 13 3 58-8l42-10 37 40-52 57-54 60c-6 10-3 25 4 32a1350 1350 0 0 0 111 59 1538 1538 0 0 1-55 90c-3 5-3 16-1 21 7 17 30 21 42 9 4-4 71-113 75-121 5-10 2-22-6-29l-40-22-36-19 74-79 29 23c15 14 30 25 33 27 7 4 16 4 23 0l39-36c39-36 40-37 39-49-1-10-7-18-17-21-10-4-18-2-28 7l-41 38-5 5-40-38A13598 13598 0 0 1 268 61l-9-2-55 12z"
  />
  <path
    d="m139 319-21 26-20 4-50 10c-18 3-32 7-35 8-4 2-10 8-12 13l-1 10c0 6 0 8 3 13 5 8 16 14 25 12l113-22c2-1 6-2 7-4a620 620 0 0 0 49-62l-11-6-15-10c-4-5-9-14-9-17l-1-1-22 26z"
  />
</svg>
